<svg fill="none" height="61" viewBox="0 0 54 61" width="54" xmlns="http://www.w3.org/2000/svg"><g stroke="#000" stroke-linecap="round" stroke-linejoin="round"><path d="m1 58.7481c0 .762.66667 1.4286 1.42857 1.4286h49.04763c.7619 0 1.4286-.6666 1.4286-1.4286 0-2.9523-.6667-14.5714-5.0477-17.4285-4.6666-3.0476-14-4.8572-16-5.4286-.3809-.0952-.8571-.0952-1.2381.1905-1.3333.8571-1.4285 3.0476-3.8095 3.0476-2.3809 0-2.4762-2.1905-3.8095-3.0476-.381-.1905-.7619-.2857-1.1429-.1905-2 .5714-11.3333 2.2857-15.99996 5.3333-4.19047 2.8572-4.7619 14.5715-4.85714 17.5238"/><path d="m15.2857 15.0338c.0953.7619.1905 1.5238.381 2.2857-1.4286.2857.5714 6.4762.5714 6.4762 2.0952 4.8572 4.1905 7.6191 6 9.2381"/><path d="m31.6666 33.0338c1.8095-1.619 4-4.4762 6-9.3333 0 0 2-6.1905.5715-6.4762.1904-.7619.2857-1.5238.3809-2.2857"/><path d="m22.3333 35.891v-2.8572"/><path d="m31.6666 35.891v-2.8572"/><path d="m31.0952 6.55766v-6.190472h-8.2857v2.476192c-5.7143 1.61905-9.9048 6.47619-9.9048 12.19052h28.0953c0-5.71433-4.1905-10.57147-9.9048-12.19052"/><path d="m38.8095 37.6053v11.619h-23.6191v-11.619"/><path d="m8.90472 41.2243v18.9524"/><path d="m45.0952 41.2243v18.9524"/></g></svg>