<svg fill="none" height="61" viewBox="0 0 60 61" width="60" xmlns="http://www.w3.org/2000/svg"><g clip-rule="evenodd" fill="#000" fill-rule="evenodd"><path d="m32.6471 58.7649c.9706.353 1.9412.6177 3 .6177.3529 0 .6176 0 .9706-.0882 1.4117-.2648 2.4706-1.2353 3.5294-2.2059.132-.1155.2609-.231.3878-.3448.5521-.4946 1.0677-.9565 1.6416-1.2435.5647-.2823 1.2423-.3953 1.9877-.5195.1864-.0311.377-.0628.5711-.0981 1.4118-.1765 2.8235-.4412 3.8824-1.3235 1.0588-.8824 1.5882-2.2059 2.1176-3.5295.353-.8823.7059-1.6764 1.1471-2.2941.5294-.6176 1.2353-1.147 2.0294-1.6764 1.147-.7942 2.2941-1.5883 2.9118-2.9118.6176-1.2353.5294-2.6471.4411-4.0588 0-.2485-.0058-.4911-.0114-.728-.0164-.6885-.0316-1.3282.0997-1.9191.1764-.7059.6176-1.5 1.0588-2.2941.7059-1.2353 1.4118-2.4706 1.4118-3.9706s-.7059-2.7353-1.4118-3.9706c-.4412-.7941-.8824-1.5882-1.0588-2.2941-.1765-.7941-.1765-1.6765-.0883-2.6471.0883-1.4117.1765-2.8235-.4411-4.0588-.6177-1.3235-1.7648-2.1176-2.9118-2.9117-.7941-.5295-1.5882-1.0589-2.0294-1.6765-.4412-.6177-.7941-1.4118-1.1471-2.2941-.4412-1.32356-.9706-2.64709-2.1176-3.52945-1.1471-.88235-2.5589-1.14705-3.8824-1.32352-.1941-.0353-.3847-.06706-.571-.09812-.7455-.12424-1.4231-.23718-1.9878-.51953-.5739-.28695-1.0895-.74888-1.6416-1.24352-.1269-.11375-.2558-.22923-.3878-.34472-.0932-.07765-.1864-.15599-.2798-.23453-.9681-.81387-1.9621-1.64947-3.2496-1.97135-.2647-.088235-.6177-.088235-.9706-.088235-.8137 0-1.6894.248045-2.5231.484215-.1608.04554-.32.09064-.4769.13343-.8824.26471-1.7647.52941-2.5588.52941-.7942 0-1.6765-.2647-2.5589-.52941-.9706-.35294-1.9411-.617645-3-.617645-.3529 0-.6176 0-.9706.088235-1.4117.26471-2.4705 1.23529-3.5294 2.20588-.1319.11549-.2608.23097-.3878.34472-.5521.49464-1.0677.95657-1.6416 1.24352-.5647.28235-1.2423.39529-1.9877.51953-.1864.03106-.377.06282-.5711.09812-1.4118.17647-2.8235.44117-3.8824 1.32352-1.0588.88236-1.58818 2.20588-2.1176 3.52945-.35294.8823-.70588 1.6764-1.14706 2.2941-.52941.6176-1.23529 1.147-2.02941 1.6765-1.14706.7941-2.29412 1.5882-2.91176 2.9117-.61765 1.2353-.52942 2.6471-.44118 4.0588 0 .2485.00578.4911.01142.728.01641.6885.03165 1.3282-.09966 1.9191-.17647.7059-.61764 1.5-1.05882 2.2941-.70588 1.2353-1.411764 2.4706-1.411764 3.9706s.705884 2.7353 1.411764 3.9706c.44118.7941.88235 1.5882 1.05882 2.2941.17648.7941.17648 1.6765.08824 2.6471-.08824 1.4117-.17647 2.8235.44118 4.0588.61764 1.3235 1.7647 2.1176 2.91176 2.9118.79412.5294 1.58824 1.0588 2.02941 1.6764.44118.6177.79412 1.4118 1.14706 2.2941.44118 1.3236.9706 2.6471 2.1176 3.5295 1.1471.8823 2.5589 1.147 3.8824 1.3235.1941.0353.3847.067.5711.0981.7454.1242 1.423.2372 1.9877.5195.5739.287 1.0895.7489 1.6416 1.2435.127.1138.2559.2293.3878.3448.0932.0776.1864.156.2798.2345.9682.8139 1.9621 1.6495 3.2496 1.9714.2648.0882.6177.0882.9706.0882.8137 0 1.6894-.2481 2.5231-.4842.1608-.0456.32-.0907.4769-.1335.8824-.2647 1.7647-.5294 2.5589-.5294.7941 0 1.6764.2647 2.5588.5294zm.0138-.6867c-.8603-.2287-1.7316-.4603-2.6609-.4603-.9823 0-1.9.2589-2.7529.4995-.143.0403-.2842.0801-.4235.1181-1.2353.353-2.3824.6177-3.2648.4412-.8681-.2604-1.8216-1.1188-2.6925-1.9027l-.0427-.0385-.0644-.0572c-.7773-.6912-1.6359-1.4547-2.4945-1.8839-.9706-.4412-2.0294-.6177-3.1764-.7942h-.0001c-1.2353-.1764-2.4705-.3529-3.1764-.9706-.7941-.5294-1.2353-1.5882-1.6765-2.8235-.35292-.9706-.88233-2.0294-1.49998-2.8235-.55146-.7878-1.38427-1.3646-2.18442-1.9188-.09604-.0665-.19161-.1327-.28617-.1989-1.05882-.7058-2.02941-1.4117-2.47059-2.2941-.42669-.9387-.35816-1.96-.27337-3.2235.00288-.0428.00577-.086.00867-.1294l.0049-.0637c.08648-1.1227.16666-2.1635-.09314-3.2893-.16478-.9887-.71424-1.9004-1.21734-2.7353-.03568-.0592-.07113-.118-.10619-.1764-.70588-1.0588-1.235292-2.0294-1.235292-3.1765 0-.9243.470712-1.7814 1.001212-2.7474.07718-.1405.15563-.2834.23408-.4291.61765-.8823 1.05883-1.9411 1.32353-2.9117.2598-1.1258.17962-2.1666.09314-3.2892l-.0049-.0638c-.00199-.0298-.00398-.0595-.00596-.0892-.08599-1.2859-.16057-2.4012.27066-3.2637.40023-.8005 1.30875-1.4557 2.19859-2.0974.09105-.0657.18191-.1312.272-.1967.88235-.6177 1.85294-1.3236 2.47059-2.1177.70588-.7941 1.14706-1.8529 1.49998-2.8235.4412-1.05883.9706-2.20589 1.6765-2.82353.7941-.61765 1.9412-.79412 3.1765-.97059.0502-.00838.1007-.01675.1513-.02515 1.016-.16867 2.1006-.34873 3.0251-.76897.8281-.3764 1.5277-1.0097 2.2085-1.62593.1172-.10605.2338-.2116.3504-.31525.8823-.97058 1.7647-1.7647 2.7352-1.94117.8824-.17647 2.0295.08823 3.2648.44117.201.05027.4021.10372.6038.15734.8603.22869 1.7316.46031 2.6609.46031 1.0319 0 2.0638-.28563 2.9672-.5357.1008-.02791.2-.05537.2975-.08195 1.2353-.35294 2.3823-.61764 3.2647-.44117.8681.26044 1.8217 1.11881 2.6926 1.90275l.0427.03842c.1166.10365.2332.2092.3503.31526.6808.61622 1.3804 1.24952 2.2085 1.62592.9706.44118 2.0294.61765 3.1765.79412 1.2353.17647 2.4705.35294 3.1764.97059.7941.52941 1.2353 1.58823 1.6765 2.82353.3529.9706.8824 2.0294 1.5 2.8235.5515.7878 1.3843 1.3646 2.1844 1.9188.0961.0665.1916.1327.2862.1989.0425.0283.0849.0565.1271.0846 1.0088.6714 1.92 1.2779 2.3435 2.2095.4267.9387.3581 1.96.2734 3.2234-.0029.0429-.0058.0861-.0087.1295l-.0049.0638c-.0865 1.1226-.1667 2.1634.0931 3.2892.1648.9887.7143 1.9004 1.2173 2.7353.0357.0592.0712.118.1062.1764.7059 1.0589 1.2353 2.0294 1.2353 3.1765 0 .9243-.4707 1.7814-1.0012 2.7474-.0772.1405-.1556.2834-.2341.4291-.6176.8823-1.0588 1.9412-1.3235 2.9117-.2598 1.1258-.1796 2.1666-.0931 3.2892l.0049.0638.0059.0892c.086 1.2859.1606 2.4013-.2706 3.2637-.4002.8005-1.3088 1.4557-2.1986 2.0974-.0911.0657-.1819.1312-.272.1967-.8824.6177-1.7647 1.3236-2.4706 2.1177s-1.1471 1.8529-1.5 2.8235c-.4412 1.0588-.9706 2.2059-1.6765 2.8235-.8823.6177-2.0294.7942-3.2647.9706-.0502.0084-.1007.0168-.1513.0252-1.016.1687-2.1006.3487-3.0251.769-.8281.3764-1.5277 1.0097-2.2085 1.6259-.1172.106-.2338.2116-.3504.3152-.8823.9706-1.7647 1.7647-2.7353 1.9412-.8823.1765-2.0294-.0882-3.2647-.4412-.201-.0502-.4021-.1037-.6038-.1573z"/><path d="m6.44116 30.2649c0 12.9706 10.58824 23.5588 23.55884 23.5588s23.5588-10.5882 23.5588-23.5588c0-13.0588-10.5882-23.64704-23.5588-23.64704s-23.55884 10.58824-23.55884 23.64704zm.97059-.0882c0-12.5294 10.14705-22.67649 22.58825-22.67649s22.5882 10.14709 22.5882 22.67649-10.147 22.6765-22.5882 22.6765-22.58825-10.1471-22.58825-22.6765z"/><path d="m29.0294 38.2061-6.3529-7.0588c-.2647-.2647-.1765-.7059.0882-.9706s.7059-.1765.9706.0882l5.2059 5.8236 7.6765-11.9118c.1764-.3529.6176-.4412.9706-.1765.3529.2647.4411.6177.1764.9706z"/></g></svg>