<svg version="1" xmlns="http://www.w3.org/2000/svg" width="880" height="880" viewBox="0 0 660.000000 660.000000"><path d="M377.4 200.2c-1.5 2.4-7.3 11.5-12.9 20.3-5.6 8.8-22.4 35.3-37.3 59l-27.2 43-9.2-.1c-5.1-.1-10-.2-10.8-.3-1.3-.1-1.5-4.6-1.5-33.8v-33.8l-8.2-.1c-4.6-.1-8.4.1-8.5.5 0 .3-.2 18.9-.3 41.3l-.2 40.8 7.6.1c4.2.1 10.7 0 14.5 0 5.2-.1 6.7.2 6.3 1.2-.2.7-13 21.1-28.3 45.2-43.9 69.5-47.4 75.2-47.4 76.1 0 .5 1.3 1.7 3 2.6l2.9 1.7 13.7-21.7c7.6-11.9 15.3-24.2 17.1-27.2 4.9-7.8 17.1-27.2 18.3-29 .6-.8 2-3 3.1-4.9l2-3.4 3.3 7.4c6.3 14.7 18.3 23 33.1 23.1 9.3.1 16.6-2.4 21.9-7.6 5-4.7 5-4.7 5.8 2.4.3 2.4.6 2.5 6.2 2.5h6l.1-21c0-11.6-.1-21.5-.2-22-.3-.8-28.4-1.3-33.5-.6-.5.1-.8 3.1-.8 6.9v6.7l9-.1c5 0 9.3.3 9.6.8 1.5 2.4-7.9 15.5-11.4 15.9-.4 0-1.6.3-2.7.5-5.8 1.4-10.8 1-15.3-1.1-10-4.8-13.5-11.2-13.5-25-.1-12.3 2.1-19.4 7.7-24.9 6.2-6.3 16.9-8.1 24.6-4.1 3.2 1.6 7.6 6.6 8.5 9.5.6 1.8 1.5 2 9.1 2h8.6l-.7-3.3c-2-9-10.3-18.3-19.4-21.8-3-1.1-8.7-2.3-12.6-2.7l-7.1-.7 9.5-15.1c5.3-8.3 15-23.6 21.5-34 6.6-10.4 14.1-22.3 16.7-26.4 2.6-4.1 6.7-10.7 9.2-14.5 2.4-3.9 7.6-12.1 11.5-18.2 4-6.2 7.2-11.5 7.2-11.7 0-.3-1.3-1.4-3-2.6l-2.9-2.1-2.7 4.3zM.8 256.4c.2 1.2 4.3 15.6 8.9 32.1 4.6 16.5 9.5 34 10.8 38.8 1.3 4.9 2.5 9 2.7 9.2.4.4 6.3.7 11.8.6l4.6-.1 3.8-18.8c3.4-17.1 4.5-22.6 7.8-39.2l1.1-5.5 1.9 9.5c1 5.2 2.1 11 2.4 12.9.3 1.8.7 4.1.9 5 .2.9 1.9 9.2 3.9 18.4 1.9 9.3 3.6 17.1 3.9 17.3.4.4 8.3.7 13.8.5 2.8-.1 1.6 3.5 13-37.6 2.2-7.7 4.6-16.3 5.4-19 5.4-19.2 6.7-24.1 6.9-25 0-.5-3.7-1-8.6-1.1-4.9-.1-8.8 0-8.8.3s-1.6 7.5-3.6 16.1c-3.6 15.5-6.1 26.8-7 30.7-.2 1.1-.9 4.4-1.6 7.4l-1.2 5.5-1.3-7c-2.1-10.5-2.1-10.7-5.8-28.4-1.9-9.1-3.7-18-4-19.9-.3-1.9-.8-3.7-1-4.1-.2-.4-4.4-.7-9.3-.7h-9l-4.6 24.1c-2.6 13.2-5.2 26.5-5.7 29.4-.6 3-1.2 5.2-1.4 5-.2-.2-.8-3-1.5-6.3-1.7-9.1-1.9-9.9-4.1-19.3-1.2-4.8-2.2-9.2-2.3-9.7-1.9-8.7-4-17.6-4.7-20.1l-1-3.1H9.1c-8.5 0-8.8.1-8.3 2.1zM115.9 255.9c-.4 7.1-.3 79.5.2 80.3.5.8 12.7 1 52.2.8h9.7v-14.6l-21.7.1c-12 0-22.2-.1-22.8-.2-.6-.2-1-4.6-1-10.6v-10.2l20-.5 20-.5.1-6.8c0-6.1-.2-6.7-2-6.8-1.2-.1-10.2-.2-20.1-.3l-17.9-.1-.1-8.8-.1-8.7h43.4l.3-3.3c.2-1.7.2-5-.1-7.3l-.5-4.1h-29.7c-26.6 0-29.8.2-29.9 1.6z"/><path d="M191.9 254.4c-.1 0-.2 18.7-.3 41.3l-.1 41.3h3.5c3.8.1 41.4.1 49.8 0h5.2v-14.6l-20.5.1H209l-.1-4c0-2.2-.1-17.5-.2-34l-.2-30-8.2-.1c-4.6-.1-8.4-.1-8.4 0zM534.4 322.9c-6.8 2.5-9.7 4.5-12.7 8.9-3.6 5.2-4.8 9-4.8 14.7 0 6.5.6 9.1 2.7 12.4 4.2 6.5 9.1 8.7 29.9 13.6 12.8 3.1 17.5 5.9 17.5 10.6 0 1.7-.5 3.9-1 5-2.9 5.4-17.9 7.8-26.2 4.1-4-1.8-5.1-3.1-7.6-9.2-.9-2.4-1.3-2.6-8.3-2.4-4.1.1-7.7.2-8.1.3-1.1.2.2 7.2 2.1 11.5 6.3 13.9 30.8 20.3 49.5 12.8 15.9-6.3 21.5-27.4 10.2-38.6-5-5-7.9-6-38.3-13.3-2.8-.7-6.3-3.9-6.4-6.1-.6-8.2 5.2-12.3 16.6-11.7 8 .4 12.7 3.8 14.9 10.7.5 1.5 1.8 1.8 8.7 1.8h8.1l-.6-4.1c-2-14.3-14.4-22.9-33.1-22.9-5.2.1-9.8.7-13.1 1.9zM611.3 322.7c-6.3 1.8-12.6 7-15.6 12.7-1.6 3.1-2.2 5.8-2.2 11.6 0 13.7 5.4 19 24.3 23.6 5.4 1.3 10.2 2.4 10.9 2.4.7 0 3.7.9 6.8 2.1 3.9 1.4 5.9 2.9 6.8 4.7 4.2 8.9-4.7 15.2-19.9 14-6.7-.6-10.2-2.9-13.1-8.9l-2.2-4.5-7.8.1c-4.4 0-7.7.5-7.6 1 .1.6.4 2.7.7 4.9 1.3 7.9 6.6 14.2 15.1 18.2 6 2.8 9.7 3.5 19 3.6 21 .2 34.8-11.7 33.2-28.6-1.2-12.7-6.7-17.2-27.2-22.1-15.6-3.7-20.3-5.4-22-7.8-3.3-4.7-.9-10.5 5.5-13 4.3-1.8 13.5-1.6 17.4.4 3.3 1.6 6.6 5.6 7 8.5.3 1.7 1.3 1.9 8.8 2.2l8.6.3-.9-4.7c-1-5.3-4.6-11.9-8-14.8-1.2-1-4.7-3-7.8-4.5-4.6-2.1-7.2-2.6-15.1-2.8-6.4-.2-11.2.3-14.7 1.4zM366.9 323.9c-.3 2.4-.1 81.2.2 81.6.5.4 13.6.6 39.7.6l18.2-.1v-15h-41v-67.8h-8.5c-4.7 0-8.5.3-8.6.7zM449 354.9c-6.1 17.4-11.5 32.5-12 33.6-1.8 4.4-6 16.8-5.8 17 .5.5 5.1.7 11.5.6l6.2-.1 2.7-8.5 2.8-8.5h30.5l2.6 8.5 2.6 8.5H509l-2-5.3c-3.3-9-25.1-71-26.1-74.3l-.9-3.2-9.9.1h-10L449 354.9zm22-9.6c0 .7 2 7.4 4.5 14.9 2.5 7.6 4.5 14 4.5 14.3 0 .3-4.7.4-10.4.4l-10.4-.2 1.2-3.6c7-22.4 9-28 9.8-27.5.4.3.8 1.1.8 1.7z"/></svg>