<svg width="100" height="100" viewBox="0 0 100 100" fill="none" xmlns="http://www.w3.org/2000/svg">
<path d="M50 100C22.4 100 0 77.6 0 50C0 22.4 22.4 0 50 0C77.6 0 100 22.4 100 50C100 77.6 77.6 100 50 100ZM50 2C23.6 2 2 23.6 2 50C2 76.4 23.5 98 50 98C76.5 98 98 76.5 98 50C98 23.5 76.4 2 50 2Z" fill="#4A4A4A"/>
<path d="M53.3996 66.3H46.7996C46.2996 66.3 45.7996 65.9 45.7996 65.3L43.0996 23.7C42.9996 21.8 43.5996 20 44.8996 18.5C47.4996 15.7 52.2996 15.7 54.8996 18.5C56.1996 19.9 56.8996 21.7 56.7996 23.6L54.3996 65.3C54.3996 65.9 53.9996 66.3 53.3996 66.3ZM47.7996 64.2H52.4996L54.8996 23.5C54.9996 22.2 54.4996 20.9 53.5996 19.9C51.6996 17.9 48.3996 17.9 46.4996 19.9C45.5996 20.9 45.0996 22.2 45.1996 23.5L47.7996 64.2Z" fill="#4A4A4A"/>
<path d="M50 83.6C46.7 83.6 44 80.9 44 77.6C44 74.3 46.7 71.6 50 71.6C53.3 71.6 56 74.3 56 77.6C56 81 53.3 83.6 50 83.6ZM50 73.7C47.8 73.7 46.1 75.5 46.1 77.6C46.1 79.7 47.9 81.5 50 81.5C52.2 81.5 53.9 79.7 53.9 77.6C53.9 75.5 52.2 73.7 50 73.7Z" fill="#4A4A4A"/>
</svg>
