<svg fill="none" height="61" viewBox="0 0 59 61" width="59" xmlns="http://www.w3.org/2000/svg"><path clip-rule="evenodd" d="m17.8006 21.2908c-.6137.9372-1.3221 1.6092-2.0742 2.042-.6949.3994-1.4251.5939-2.1523.6043-.7261.0104-1.4428-.1622-2.1148-.4972-.7282-.363-1.4043-.9175-1.97852-1.6353-.2507 1.1901-.80827 2.3031-1.64255 3.1624-1.0548 1.085-2.54443 1.7611-4.40959 1.6706-.06508-.0028-.12019-.0064-.16533-.0094l-.01567-.001c-.03225-.001-.0645-.0052-.09674-.0146-1.08498-.2943-1.7757-.9268-2.200118-1.6748-.570053-1.0069-.639749-2.2146-.537806-3.0687.088421-.7729.242377-1.4542.446265-2.0503.471229-1.3804 1.207719-2.3166 1.997269-2.8908.68552-.4993 1.41473-.7282 2.05656-.7407-.41714-1.1286-.19141-2.2948.39425-3.2362.28815-.4629.66472-.8707 1.0933-1.1911.43274-.3235.92269-.5596 1.43553-.6772.76666-.1758 1.57285-.0863 2.30515.3714-.1061-1.1547.0822-2.30308.4931-3.33709.5909-1.48858 1.6446-2.74208 2.9439-3.43176.6938-.36824 1.4584-.57733 2.2646-.57837.7448-.00104 1.5177.17684 2.2906.57005.104.05305.2091.11027.3131.17164 1.0569-.98823 2.17-1.54892 3.2654-1.77153 1.0589-.21534 2.095-.11131 3.0448.22989.9435.33912 1.7985.91125 2.5028 1.63838.8779.90709 1.525 2.0576 1.8183 3.29653.621.05202 1.2473.24446 1.8506.61375-.0614-1.1037.1925-2.21156.6918-3.22476.672-1.36168 1.7923-2.55588 3.1946-3.33814.9029-.50348 1.9244-.83739 3.0198-.93518 1.009-.0905 2.0763.01873 3.1675.37761.3079.1009.6179.22261.93.36617 1.5448-1.09226 3.1728-1.672714 4.757-1.857878 1.8007-.2111692 3.5441.090501 5.0421.731291 1.5052.644947 2.7681 1.635267 3.5982 2.799297.5232.73337.8769 1.5354 1.0153 2.36655 1.0423.54197 1.7008 1.42513 2.0316 2.45081.2756.85508.3162 1.80584.156 2.73374-.1591.9238-.516 1.8298-1.0371 2.6017-1.0465 1.551-2.7463 2.5694-4.8361 2.147-.3537.4837-.7729.9019-1.241 1.2587-1.4439 1.1016-3.359 1.627-5.2262 1.6686-1.7799.0395-3.5275-.3641-4.7893-1.1276-.491.674-1.0402 1.2378-1.629 1.6976-1.3835 1.0808-2.9772 1.575-4.5511 1.5791-1.5697.0042-3.1165-.4795-4.4148-1.3565-.4192-.2829-.8124-.6085-1.1733-.9726-.3308 1.3773-1.2036 2.6641-2.557 3.5941-1.4209.9747-3.3735 1.5562-5.7848 1.4251-.0291 0-.0582-.0021-.0873-.0083-1.4179-.284-2.3281-.9009-2.8909-1.6332-.2236-.2902-.3911-.5971-.5128-.9081zm.5784-1.0559c.0156-.0811.0063-.1633-.0239-.2372-.0187-.2892-.001-.5627.0374-.803.0552-.3454.1228-.6741.2019-.9872.4899-1.9494 1.3793-3.0178 2.3623-3.5608.98-.5409 2.067-.5711 2.946-.4306.1737.028.3464.0645.5118.1061v-.0011c.0853.0219.1789.0167.2663-.0218.2101-.0916.3058-.336.2143-.5461-.3412-.7834-.2091-1.6665.2216-2.4529.311-.568.776-1.0829 1.3325-1.47615.5555-.39113 1.1984-.66159 1.8693-.74065.9519-.11235 1.9692.16124 2.8774 1.0215.0988.0978.2455.1425.39.1072.2227-.0552.3589-.27986.3038-.50247-.3058-1.24101-.103-2.54444.4733-3.71159.5992-1.21501 1.5999-2.28126 2.8534-2.9803.8062-.44938 1.7154-.74689 2.688-.83427.8977-.0801 1.8527.01872 2.8357.34224.4307.14147.8644.32559 1.2993.55549.4233.22365.8488.49099 1.2722.8041.1841.13628.4442.09779.5804-.08634.1363-.18412.0978-.44418-.0863-.58045-.3464-.2559-.6918-.48372-1.0371-.68344 1.3148-.84988 2.6817-1.31071 4.0132-1.46674 1.6519-.19349 3.2497.08217 4.6229.66991 1.3658.58462 2.5049 1.47507 3.2476 2.51635.3443.48267.6023.99551.7573 1.52396-.3922-.10819-.8239-.17684-1.2961-.20077-.2289-.01144-.4245.16436-.4359.39321-.0114.22886.1644.42442.3932.43586 1.9827.10091 3.0916 1.12451 3.514 2.43729.233.72297.2652 1.53646.1269 2.34056-.1394.8093-.4515 1.602-.9071 2.2771-.9113 1.3492-2.403 2.2178-4.2234 1.7434-.1675-.0426-.3506.0219-.4504.1738-.3298.5024-.7438.932-1.2182 1.294-1.2972.9893-3.0354 1.4616-4.7383 1.499-1.7049.0375-3.362-.3578-4.497-1.1037-.363-.2392-.6719-.5139-.907-.8228-.1384-.1821-.3995-.2174-.5815-.078-.1821.1383-.2174.3994-.0781.5815.1758.2298.3818.4431.6148.6407-.4452.6107-.9372 1.1173-1.4626 1.5271-1.2295.9602-2.6453 1.4002-4.0413 1.4043-1.4012.0032-2.7868-.4306-3.9498-1.217-.5919-.4005-1.1245-.8905-1.5718-1.4585-.0697-.1009-.1831-.1695-.3152-.1778-.2289-.0146-.4255.1591-.44.388-.0957 1.4626-.905 2.8908-2.3354 3.8728-1.2795.878-3.0541 1.4002-5.2646 1.2816-1.1828-.2403-1.9266-.7365-2.3749-1.3191-.3506-.4556-.5253-.9684-.5909-1.4563zm22.6222-16.68029c.1363.04473.2101.1914.1654.32767-.0447.13628-.1914.21013-.3277.1654-1.0028-.32975-1.9796-.43066-2.8981-.34848-.9955.08946-1.9255.39321-2.7504.853-.1248.0697-.283.02497-.3527-.1009-.0696-.12483-.0249-.28295.101-.35265.8852-.49307 1.8849-.81971 2.9574-.91645.9882-.08842 2.0347.01872 3.1051.37137zm-18.7338 55.35139h9.3258l-2.1023-10.2485c-.0135-.0375-.0218-.077-.0239-.1186l-1.8132-8.8379h-10.7738l-3.9394 19.205h9.3258zm-4.0132-51.99661c.0655-.12795.0146-.28399-.1134-.34952v-.00208c-.7511-.38177-1.499-.55445-2.2199-.55341-.7791.00104-1.5198.20389-2.1918.56069-.1269.06762-.1758.22469-.1082.3516.0677.12691.2247.1758.3516.10819.6013-.31936 1.2598-.50036 1.9474-.5014.6397 0 1.3086.155 1.9848.49932.1279.06553.284.01456.3495-.11339zm-5.7848 25.54421.0166 7.4617h.3475l-.0167-7.4617zm-.31 0 .0166 7.4617h-6.81355v-7.4617zm1.1755 0 .0166 7.4617h.516v-7.4617zm12.9219 4.8912-.0167-7.4616h.3475l.0166 7.4616zm-.31 0-.0167-7.4616h-9.1177v7.4616zm1.1755 0-.0167-7.4616h.6169v7.4616zm1.1047-29.08829c-.2746-1.02464-.827-1.97439-1.5624-2.73376-.62-.63975-1.368-1.14219-2.1877-1.43658-.8124-.29231-1.6987-.38073-2.6027-.19765-.9019.18309-1.8256.63975-2.7202 1.43658.2705.20805.542.44731.8135.72089.1612.16228.1612.42546-.0021.5867-.1623.16123-.4255.16123-.5867-.00208-.2632-.26423-.5316-.49724-.802-.70009-.2747-.20493-.5482-.37553-.8208-.51388-.6543-.33288-1.2993-.48267-1.914-.48267-.6606.00104-1.2941.1758-1.8746.48371-1.1265.59814-2.044 1.6956-2.5631 3.00319-.4962 1.24829-.6273 2.68483-.2299 4.05903.0634.2195-.0624.4494-.283.5139-.1685.0489-.3422-.0135-.4431-.1446-.70632-.9102-1.60197-1.1474-2.42688-.9591-.3953.0905-.77915.2767-1.12347.5347-.34848.26-.65223.5898-.88524.9643-.55965.8987-.70321 2.0555-.02601 3.0916.12483.1924.0697.4494-.12171.5742-.11026.0718-.24342.0842-.35888.0447-.09987-.0343-.20805-.0582-.32248-.0707-.53572-.0614-1.20252.105-1.83915.568-.66367.4826-1.28782 1.2857-1.69872 2.4882-.18516.5441-.32663 1.1672-.40777 1.8777v.0031c-.08634.724-.03329 1.7382.43378 2.5611.31832.5627.84052 1.0402 1.66127 1.2722.05617.0041.1009.0073.13419.0083 1.60302.077 2.87835-.4972 3.77504-1.4199.90606-.9321 1.43658-2.222 1.53956-3.5598.00625-.0759.00937-.1352.01145-.1778.0104-.2289.20492-.4057.43378-.3953.15499.0073.28502.0978.35056.2267.59088 1.0205 1.37938 1.7799 2.25108 2.2137.5565.2777 1.1453.4213 1.7341.413.5877-.0084 1.1807-.1675 1.7486-.4942.8177-.4701 1.5854-1.2899 2.2189-2.5121-.0291-.3735-.0083-.7282.0416-1.0372.0614-.3817.1331-.7344.2143-1.0589.5565-2.2105 1.602-3.4443 2.7691-4.0882 1.1287-.6231 2.3572-.6824 3.3652-.5388-.1498-.8364.0406-1.7019.4671-2.48.3713-.6772.9227-1.28884 1.5832-1.75591.6627-.46811 1.4376-.79162 2.2532-.88732h.0021zm8.1285 21.68699h-2.2626v-.0021c-.2299 0-.4161.1862-.4161.4161v4.1995h-3.7948c-.2299 0-.4161.1862-.4161.4161v9.4339l-1.0673-5.2053c-.0405-.1966-.2132-.3319-.4067-.3319v-.001h-11.45c-.2132 0-.388.1602-.4129.3662l-.9727 4.7435-.5253-2.2553c-.0447-.1924-.2153-.3214-.4046-.3214h-9.31333c-.20493 0-.37553.1477-.40986.3433l-3.33814 14.3428c-.05201.2237.08634.4473.30999.4993.03225.0084.06346.0115.09467.0115h10.99747l-.542 2.6412c-.0458.2236.0988.4431.3235.4889.0281.0052.0562.0083.0832.0083v.0011c3.715 0 7.4297.0046 11.1442.0093h.0008.0007.0008.0008.0008.0007.0008.0008.0008.0008.0007.0008.0008.0008.0007.0008.0008.0008c3.7092.0047 7.4182.0094 11.127.0094h14.5686 6.2113c.2299 0 .4161-.1862.4161-.4161v-24.3667c0-.2299-.1862-.4161-.4161-.4161h-3.0063v-4.1994c0-.2299-.1862-.4161-.4161-.4161h-2.2626v-7.8039h-.001c0-.0593-.0125-.1197-.0395-.1769-.0978-.208-.3454-.2965-.5524-.1987l-12.5984 5.97c-.155.0614-.2652.2112-.2652.388zm.4161.8322h-2.2626v3.7834h17.1495v-3.7834h-2.2625c-.2299 0-.4161-.1862-.4161-.4161v-7.5636l-11.7922 5.5871v1.9765c0 .2299-.1862.4161-.4161.4161zm12.513 23.5345h-14.5686c-.2299 0-.4161.1862-.4161.4161v4.1994h-1.8568l-2.146-10.4596v-13.0748h3.7948 17.9816 3.0063v23.5344h-5.3791v-4.1994c0-.2299-.1862-.4161-.4161-.4161zm-.4161.8322h-13.7364v3.7833h13.7364zm-2.4747-5.1763h4.4523v2.25h-4.4523zm-.4161-.8322h5.2845c.2298 0 .416.1862.416.4161v3.0822c0 .2299-.1862.4161-.416.4161h-5.2845c-.2299 0-.4161-.1862-.4161-.4161v-3.0822c0-.2299.1862-.4161.4161-.4161zm-7.1152 0h-5.2845c-.2299 0-.4161.1862-.4161.4161v3.0822c0 .2299.1862.4161.4161.4161h5.2845c.2298 0 .416-.1862.416-.4161v-3.0822c0-.2299-.1862-.4161-.416-.4161zm-.4161.8322h-4.4523v2.25h4.4523zm7.5313-2.1325h5.2845c.2298 0 .416-.1862.416-.4161v-3.0822c0-.2299-.1862-.4161-.416-.4161h-5.2845c-.2299 0-.4161.1862-.4161.4161v3.0822c0 .2299.1862.4161.4161.4161zm.4161-.8322h4.4523v-2.25h-4.4523zm-7.9474 0h-4.4523v-2.25h4.4523zm.4161.8322h-5.2845c-.2299 0-.4161-.1862-.4161-.4161v-3.0822c0-.2299.1862-.4161.4161-.4161h5.2845c.2298 0 .416.1862.416.4161v3.0822c0 .2299-.1862.4161-.416.4161zm7.5313-8.2876h4.4523v2.25h-4.4523zm-.4161-.8322h5.2845c.2298 0 .416.1862.416.4161v3.0822c0 .2299-.1862.4161-.416.4161h-5.2845c-.2299 0-.4161-.1862-.4161-.4161v-3.0822c0-.2299.1862-.4161.4161-.4161zm-7.1152 0h-5.2845c-.2299 0-.4161.1862-.4161.4161v3.0822c0 .2299.1862.4161.4161.4161h5.2845c.2298 0 .416-.1862.416-.4161v-3.0822c0-.2299-.1862-.4161-.416-.4161zm-.4161.8322h-4.4523v2.25h4.4523zm-24.1649-7.9235h-9.33722c-.2299 0-.4161.1862-.4161.4161v8.2938c0 .2299.1862.4161.4161.4161h9.33722c.2299 0 .4161-.1862.4161-.4161v-8.2938c0-.2299-.1862-.4161-.4161-.4161zm2.1127-2.5705h11.7433c.2299 0 .4161.1862.4161.4161v8.2939c0 .2299-.1862.4161-.4161.4161h-11.7433c-.2299 0-.4161-.1862-.4161-.4161v-8.2939c0-.2299.1862-.4161.4161-.4161zm-1.6592 16.7906c.0052.0249.0136.0478.0229.0707l-2.0212 9.8542h-10.64477l3.14986-13.5325h8.65381z" fill="#000" fill-rule="evenodd"/></svg>