<svg fill="none" height="50" viewBox="0 0 50 50" width="50" xmlns="http://www.w3.org/2000/svg"><rect height="49" rx="24.5" stroke="#e56f1e" width="49" x=".5" y=".5"/><path clip-rule="evenodd" d="m16.8318 13.022c-.168-.0335-.3697-.0335-.5042.0334-1.8151.7021-2.9579 3.2765-3.2268 5.0485-.8404 5.7506 3.731 10.7322 7.9327 14.0087 3.731 2.9088 10.8906 7.6898 15.1259 3.0759.5378-.5683 1.1765-1.4042 1.1429-2.24-.1009-1.4042-1.4118-2.4073-2.4202-3.1762-.7731-.5684-2.3865-2.1398-3.3949-2.1064-.9076.0335-1.479.9696-2.0504 1.538l-1.0084 1.003c-.1681.1672-2.3193-1.237-2.5546-1.4042-.874-.5684-1.7143-1.2036-2.4538-1.9057s-1.4117-1.4711-1.9832-2.2735c-.168-.2341-1.5462-2.2735-1.4117-2.4407 0 0 1.1764-1.2705 1.5126-1.772.7058-1.0699 1.2437-1.9057.4369-3.1762-.3025-.4681-.6722-.8358-1.0756-1.237-.7059-.6687-1.4117-1.3708-2.2185-1.9392-.4369-.3343-1.1764-.9361-1.8487-1.0364z" fill="#e56f1e" fill-rule="evenodd"/></svg>