<svg fill="none" height="30" viewBox="0 0 30 30" width="30" xmlns="http://www.w3.org/2000/svg"><g clip-rule="evenodd" fill-rule="evenodd"><path d="m15 30c8.2843 0 15-6.7157 15-15 0-8.28427-6.7157-15-15-15-8.28427 0-15 6.71573-15 15 0 8.2843 6.71573 15 15 15z" fill="#096b61"/><path d="m14.7854 20.5304h1.1954s.3611-.0404.5456-.2419c.1697-.1853.1643-.5329.1643-.5329s-.0234-1.6278.7209-1.8675c.7341-.2363 1.6765 1.5732 2.6753 2.269.7553.5264 1.3293.4112 1.3293.4112l2.6709-.0379s1.3971-.0875.7346-1.2023c-.0542-.091-.3859-.8246-1.9859-2.3318-1.6749-1.5774-1.4504-1.3222.567-4.0509 1.2285-1.6617 1.7196-2.6762 1.5662-3.11064-.1462-.41396-1.0499-.30461-1.0499-.30461l-3.0073.01887s-.2231-.0308-.3883.06954c-.1616.09813-.2654.32741-.2654.32741s-.4761 1.28583-1.1107 2.37953c-1.3391 2.3075-1.8746 2.4296-2.0935 2.2861-.5092-.334-.382-1.3414-.382-2.0573 0-2.2363.3343-3.16873-.6508-3.41008-.3269-.08005-.5677-.13301-1.4037-.14166-1.0731-.01108-1.9811.00336-2.4954.25901-.3421.17003-.6061.54882-.4452.57062.1988.02687.6488.12328.8874.45271.3083.4257.2975 1.3811.2975 1.3811s.1771 2.6324-.4135 2.9593c-.4053.2243-.9614-.2335-2.1553-2.327-.61157-1.0724-1.0735-2.2579-1.0735-2.2579s-.08895-.22144-.24783-.34001c-.19268-.14365-.46193-.18918-.46193-.18918l-2.85777.01894s-.42889.01215-.58651.20148c-.14022.16852-.0112.51667-.0112.51667s2.23718 5.3118 4.77056 7.9886c2.32318 2.4546 4.96068 2.2935 4.96068 2.2935z" fill="#fff"/></g></svg>